<?xml version="1.0" encoding="UTF-8"?>
<svg width="84px" height="12px" viewBox="0 0 84 12" version="1.1" xmlns="http://www.w3.org/2000/svg" xmlns:xlink="http://www.w3.org/1999/xlink">
    <!-- Generator: Sketch Beta 40.2 (33825) - http://www.bohemiancoding.com/sketch -->
    <title>Ant Motion</title>
    <desc>Created with Sketch Beta.</desc>
    <defs></defs>
    <g id="Ant-Motion" stroke="none" stroke-width="1" fill="none" fill-rule="evenodd">
        <g id="内容详情-copy" transform="translate(-269.000000, -21.000000)" fill="#FFFFFF">
            <g id="Group-7" transform="translate(238.000000, 17.000000)">
                <path d="M35.3464746,4.22641509 L31,15.7735849 L32.990144,15.7735849 L34.025019,12.8787062 L38.7854435,12.8787062 L39.8203184,15.7735849 L41.8104625,15.7735849 L37.4639879,4.22641509 L35.3464746,4.22641509 Z M34.5822593,11.3261456 L36.3813495,6.26415094 L36.4450341,6.26415094 L38.2282032,11.3261456 L34.5822593,11.3261456 Z M47.0166793,7.18598383 C46.5231236,7.18598383 46.0773313,7.28301887 45.6633813,7.49326146 C45.2653525,7.68733154 44.899166,7.99460916 44.580743,8.38274933 L44.580743,7.41239892 L42.7657316,7.41239892 L42.7657316,15.7735849 L44.580743,15.7735849 L44.580743,10.7439353 C44.6444276,10.0808625 44.8673237,9.56334232 45.2494314,9.20754717 C45.5837756,8.88409704 45.9818044,8.72237197 46.4275967,8.72237197 C47.6694466,8.72237197 48.2903715,9.40161725 48.2903715,10.7762803 L48.2903715,15.7735849 L50.1053829,15.7735849 L50.1053829,10.6145553 C50.1053829,8.3180593 49.070508,7.18598383 47.0166793,7.18598383 L47.0166793,7.18598383 Z M54.5951478,4.7115903 L52.7801365,5.47169811 L52.7801365,7.41239892 L51.2994693,7.41239892 L51.2994693,8.93261456 L52.7801365,8.93261456 L52.7801365,13.6549865 C52.7801365,14.3342318 52.939348,14.8355795 53.257771,15.1913747 C53.5921152,15.5795148 54.1175133,15.7735849 54.8339651,15.7735849 L56.2191054,15.7735849 L56.2191054,14.2533693 L55.136467,14.2533693 C54.9454132,14.2533693 54.818044,14.2048518 54.7225171,14.1078167 C54.6269901,13.9946092 54.5951478,13.8490566 54.5951478,13.6549865 L54.5951478,8.93261456 L56.4260804,8.93261456 L56.4260804,7.41239892 L54.5951478,7.41239892 L54.5951478,4.7115903 Z M63.2403336,4.22641509 L63.2403336,15.7735849 L65.1031084,15.7735849 L65.1031084,7.81671159 L65.166793,7.81671159 L68.510235,15.7735849 L70.1182714,15.7735849 L73.4617134,7.81671159 L73.525398,7.81671159 L73.525398,15.7735849 L75.3881729,15.7735849 L75.3881729,4.22641509 L73.206975,4.22641509 L69.3540561,13.2830189 L69.2903715,13.2830189 L65.4215315,4.22641509 L63.2403336,4.22641509 Z M81.2789992,7.18598383 C80.0212282,7.18598383 79.0181956,7.5902965 78.2699014,8.43126685 C77.5056861,9.25606469 77.1394996,10.3072776 77.1394996,11.6010782 C77.1394996,12.8787062 77.5056861,13.9299191 78.2539803,14.7385445 C79.0181956,15.5795148 80.0212282,16 81.2789992,16 C82.5208491,16 83.5398029,15.5795148 84.3040182,14.7385445 C85.0363912,13.9299191 85.4184989,12.8787062 85.4184989,11.6010782 C85.4184989,10.3072776 85.0363912,9.25606469 84.288097,8.43126685 C83.5238817,7.5902965 82.5208491,7.18598383 81.2789992,7.18598383 L81.2789992,7.18598383 Z M81.2789992,8.69002695 C82.0272934,8.69002695 82.616376,8.98113208 83.030326,9.59568733 C83.3805914,10.1132075 83.5716452,10.7924528 83.5716452,11.6010782 C83.5716452,12.393531 83.3805914,13.0566038 83.030326,13.5902965 C82.616376,14.1886792 82.0272934,14.4959569 81.2789992,14.4959569 C80.5147839,14.4959569 79.9416224,14.1886792 79.5276725,13.5902965 C79.1774071,13.0727763 79.0022745,12.4097035 79.0022745,11.6010782 C79.0022745,10.7924528 79.1774071,10.1132075 79.5276725,9.59568733 C79.9416224,8.98113208 80.5147839,8.69002695 81.2789992,8.69002695 L81.2789992,8.69002695 Z M89.5898408,4.7115903 L87.7748294,5.47169811 L87.7748294,7.41239892 L86.2941622,7.41239892 L86.2941622,8.93261456 L87.7748294,8.93261456 L87.7748294,13.6549865 C87.7748294,14.3342318 87.9340409,14.8355795 88.252464,15.1913747 C88.5868082,15.5795148 89.1122062,15.7735849 89.8286581,15.7735849 L91.2137983,15.7735849 L91.2137983,14.2533693 L90.13116,14.2533693 C89.9401061,14.2533693 89.8127369,14.2048518 89.71721,14.1078167 C89.6216831,13.9946092 89.5898408,13.8490566 89.5898408,13.6549865 L89.5898408,8.93261456 L91.4207733,8.93261456 L91.4207733,7.41239892 L89.5898408,7.41239892 L89.5898408,4.7115903 Z M94,4 C93.6497346,4 93.3631539,4.11320755 93.1243366,4.33962264 C92.8855193,4.56603774 92.7740713,4.85714286 92.7740713,5.21293801 C92.7740713,5.56873315 92.8855193,5.85983827 93.1243366,6.10242588 C93.3631539,6.32884097 93.6497346,6.44204852 94,6.44204852 C94.3502654,6.44204852 94.6368461,6.32884097 94.8756634,6.10242588 C95.1144807,5.87601078 95.2418499,5.56873315 95.2418499,5.21293801 C95.2418499,4.85714286 95.1144807,4.56603774 94.8915845,4.33962264 C94.6527672,4.11320755 94.3502654,4 94,4 L94,4 Z M93.0924943,7.41239892 L93.0924943,15.7735849 L94.9075057,15.7735849 L94.9075057,7.41239892 L93.0924943,7.41239892 Z M100.973465,7.18598383 C99.7156937,7.18598383 98.7126611,7.5902965 97.9643669,8.43126685 C97.2001516,9.25606469 96.8339651,10.3072776 96.8339651,11.6010782 C96.8339651,12.8787062 97.2001516,13.9299191 97.9484458,14.7385445 C98.7126611,15.5795148 99.7156937,16 100.973465,16 C102.215315,16 103.234268,15.5795148 103.998484,14.7385445 C104.730857,13.9299191 105.112964,12.8787062 105.112964,11.6010782 C105.112964,10.3072776 104.730857,9.25606469 103.982563,8.43126685 C103.218347,7.5902965 102.215315,7.18598383 100.973465,7.18598383 L100.973465,7.18598383 Z M100.973465,8.69002695 C101.721759,8.69002695 102.310842,8.98113208 102.724792,9.59568733 C103.075057,10.1132075 103.266111,10.7924528 103.266111,11.6010782 C103.266111,12.393531 103.075057,13.0566038 102.724792,13.5902965 C102.310842,14.1886792 101.721759,14.4959569 100.973465,14.4959569 C100.209249,14.4959569 99.6360879,14.1886792 99.222138,13.5902965 C98.8718726,13.0727763 98.69674,12.4097035 98.69674,11.6010782 C98.69674,10.7924528 98.8718726,10.1132075 99.222138,9.59568733 C99.6360879,8.98113208 100.209249,8.69002695 100.973465,8.69002695 L100.973465,8.69002695 Z M110.956027,7.18598383 C110.462472,7.18598383 110.016679,7.28301887 109.602729,7.49326146 C109.204701,7.68733154 108.838514,7.99460916 108.520091,8.38274933 L108.520091,7.41239892 L106.70508,7.41239892 L106.70508,15.7735849 L108.520091,15.7735849 L108.520091,10.7439353 C108.583776,10.0808625 108.806672,9.56334232 109.188779,9.20754717 C109.523124,8.88409704 109.921152,8.72237197 110.366945,8.72237197 C111.608795,8.72237197 112.229719,9.40161725 112.229719,10.7762803 L112.229719,15.7735849 L114.044731,15.7735849 L114.044731,10.6145553 C114.044731,8.3180593 113.009856,7.18598383 110.956027,7.18598383 L110.956027,7.18598383 Z" id="Ant-Motion"></path>
            </g>
        </g>
    </g>
</svg>