<?xml version="1.0" encoding="utf-8"?>
<!-- Generator: Adobe Illustrator 19.0.0, SVG Export Plug-In . SVG Version: 6.00 Build 0)  -->
<svg version="1.1" xmlns="http://www.w3.org/2000/svg" xmlns:xlink="http://www.w3.org/1999/xlink" x="0px" y="0px"
	 viewBox="0 0 800 800" style="enable-background:new 0 0 800 800;" xml:space="preserve">
<style type="text/css">
	.st0{display:none;}
	.st1{display:inline;fill:#F2F2F2;}
	.st2{display:inline;}
	.st3{display:inline;fill:#E6E6E6;}
	.st4{font-family:'CooperHewitt-Medium';}
	.st5{font-size:25px;}
	.st6{font-family:'CooperHewitt-Light';}
	.st7{fill:url(#SVGID_1_);}
	.st8{fill:url(#SVGID_2_);}
	.st9{fill:url(#SVGID_3_);}
	.st10{fill:url(#SVGID_4_);}
	.st11{fill:url(#SVGID_5_);}
	.st12{fill:url(#SVGID_6_);}
	.st13{font-family:'MuseoSans-700';}
	.st14{font-size:28.4313px;}
	.st15{font-family:'MuseoSans-300';}
	.st16{font-size:22.4152px;}
	.st17{fill:url(#SVGID_7_);}
	.st18{fill:url(#SVGID_8_);}
	.st19{fill:url(#SVGID_9_);}
	.st20{fill:url(#SVGID_10_);}
	.st21{fill:url(#SVGID_11_);}
	.st22{fill:url(#SVGID_12_);}
	.st23{fill:url(#SVGID_13_);}
	.st24{fill:url(#SVGID_14_);}
	.st25{fill:url(#SVGID_15_);}
	.st26{fill:url(#SVGID_16_);}
	.st27{fill:url(#SVGID_17_);}
	.st28{fill:url(#SVGID_18_);}
	.st29{fill:url(#SVGID_19_);}
	.st30{fill:url(#SVGID_20_);}
	.st31{fill:url(#SVGID_21_);}
	.st32{fill:url(#SVGID_22_);}
	.st33{fill:url(#SVGID_23_);}
	.st34{fill:url(#SVGID_24_);}
	.st35{fill:url(#SVGID_25_);}
	.st36{fill:#B3B3B3;}
</style>
<g id="BACKGROUND" class="st0">
	<rect class="st1" width="800" height="800"/>
	<rect class="st2" width="800" height="63"/>
</g>
<g id="OBJECTS">
	<text transform="matrix(1 0 0 1 210.689 42.0024)" class="st0"><tspan x="0" y="0" class="st3 st4 st5">ABSTRACT LOGOTYPE </tspan><tspan x="233.8" y="0" class="st3 st6 st5">COLLECTION</tspan></text>
	<g>
		<g>
			<g>
				<g>
					
						<linearGradient id="SVGID_1_" gradientUnits="userSpaceOnUse" x1="1721.0493" y1="1761.866" x2="1832.8729" y2="1761.866" gradientTransform="matrix(0 1 -1 0 1944.8906 -1243.2949)">
						<stop  offset="0.1798" style="stop-color:#F5712E"/>
						<stop  offset="0.7673" style="stop-color:#BE551D"/>
					</linearGradient>
					<path class="st7" d="M260.1,581.6c-47.8-6.5-79.5-72.1-83.7-81.3c-0.1-0.2-0.2-0.4-0.2-0.5c-0.2-0.4-0.3-0.6-0.3-0.6l0,0
						c-5.8-12.6-18.5-21.4-33.3-21.4c-20.2,0-36.6,16.4-36.6,36.6c0,2.6,0.3,5.1,0.8,7.5h0c0.8,7.5,10.4,45,10.4,45
						C180,607.1,260.1,581.6,260.1,581.6z"/>
					
						<linearGradient id="SVGID_2_" gradientUnits="userSpaceOnUse" x1="1769.2089" y1="1245.3348" x2="1794.8733" y2="1831.3398" gradientTransform="matrix(0 1 -1 0 1944.8906 -1243.2949)">
						<stop  offset="0.2321" style="stop-color:#AC4B72"/>
						<stop  offset="0.8074" style="stop-color:#334B71"/>
					</linearGradient>
					<path class="st8" d="M322.5,721.3c-98.3,0-181-66.3-206-156.7c-1.1-3.9-2.1-7.9-2.9-11.8c6.5,2.5,13.1,4.6,19.8,6.5
						c18,5,37,7.7,56.6,7.7c11.4,0,22.5-0.9,33.5-2.6c62.2-9.8,115.5-46.5,147.6-97.7c2.7-4.2,5.2-8.6,7.6-13
						c24.5-39,61.2-69.6,104.8-86.3c23.7-9,49.4-14,76.2-14c50.9,0,97.7,17.8,134.4,47.6c-90.3,147.3-178.4,236.4-257.2,289
						c0,0-0.1,0-0.1,0c-3.1,1.3-6.3,2.6-9.4,4c-0.2,0.1-0.4,0.2-0.7,0.3c-1.3,0.7-2.6,1.4-3.9,2.1c-7.4,4-15.2,7.6-23.1,10.7
						c-0.3,0.1-0.6,0.3-0.9,0.4l-0.1,0C375,716.3,349.3,721.3,322.5,721.3z"/>
					
						<linearGradient id="SVGID_3_" gradientUnits="userSpaceOnUse" x1="1871.5691" y1="1525.1071" x2="1884.8082" y2="1827.4011" gradientTransform="matrix(0 1 -1 0 1944.8906 -1243.2949)">
						<stop  offset="0.2321" style="stop-color:#AC4B72"/>
						<stop  offset="0.8074" style="stop-color:#334B71"/>
					</linearGradient>
					<path class="st9" d="M322.5,721.3c-98.3,0-181-66.3-206-156.7c-1.1-3.9-2.1-7.9-2.9-11.8c6.5,2.5,13.1,4.6,19.8,6.5
						c18,5,37,7.7,56.6,7.7c11.4,0,22.5-0.9,33.5-2.6c0,0,60.4,89.1,199.4,131.9c-7.4,4-15.2,7.6-23.1,10.7
						c-0.3,0.1-0.6,0.3-0.9,0.4l-0.1,0C375,716.3,349.3,721.3,322.5,721.3z"/>
				</g>
				<g>
					
						<linearGradient id="SVGID_4_" gradientUnits="userSpaceOnUse" x1="1725.1656" y1="1761.866" x2="1836.991" y2="1761.866" gradientTransform="matrix(0 -1 -1 0 1944.8906 2047.416)">
						<stop  offset="0.1798" style="stop-color:#F5712E"/>
						<stop  offset="0.7673" style="stop-color:#BE551D"/>
					</linearGradient>
					<path class="st10" d="M260.1,218.4c-47.8,6.5-79.5,72.1-83.7,81.3c-0.1,0.2-0.2,0.4-0.2,0.5c-0.2,0.4-0.3,0.6-0.3,0.6h0
						c-5.8,12.6-18.5,21.4-33.3,21.4c-20.2,0-36.6-16.4-36.6-36.6c0-2.6,0.3-5.1,0.8-7.5h0c0.8-7.5,10.4-45,10.4-45
						C180,192.9,260.1,218.4,260.1,218.4z"/>
					
						<linearGradient id="SVGID_5_" gradientUnits="userSpaceOnUse" x1="1773.3254" y1="1245.3352" x2="1798.9899" y2="1831.3398" gradientTransform="matrix(0 -1 -1 0 1944.8906 2047.416)">
						<stop  offset="0.2321" style="stop-color:#AC4B72"/>
						<stop  offset="0.8074" style="stop-color:#334B71"/>
					</linearGradient>
					<path class="st11" d="M322.5,78.7c-98.3,0-181,66.3-206,156.7c-1.1,3.9-2.1,7.9-2.9,11.8c6.5-2.5,13.1-4.6,19.8-6.5
						c18-5,37-7.7,56.6-7.7c11.4,0,22.5,0.9,33.5,2.6c62.2,9.8,115.5,46.5,147.6,97.7c2.7,4.2,5.2,8.6,7.6,13
						c24.5,39,61.2,69.6,104.8,86.3c23.7,9,49.4,14,76.2,14c50.9,0,97.7-17.8,134.4-47.6c-90.3-147.3-178.4-236.4-257.2-289
						c0,0-0.1,0-0.1,0c-3.1-1.3-6.3-2.6-9.4-4c-0.2-0.1-0.4-0.2-0.7-0.3c-1.3-0.7-2.6-1.4-3.9-2.1c-7.4-4-15.2-7.6-23.1-10.7
						c-0.3-0.1-0.6-0.3-0.9-0.4l-0.1,0C375,83.7,349.3,78.7,322.5,78.7z"/>
					
						<linearGradient id="SVGID_6_" gradientUnits="userSpaceOnUse" x1="1875.6877" y1="1525.1071" x2="1888.9269" y2="1827.401" gradientTransform="matrix(0 -1 -1 0 1944.8906 2047.416)">
						<stop  offset="0.2321" style="stop-color:#AC4B72"/>
						<stop  offset="0.8074" style="stop-color:#334B71"/>
					</linearGradient>
					<path class="st12" d="M322.5,78.7c-98.3,0-181,66.3-206,156.7c-1.1,3.9-2.1,7.9-2.9,11.8c6.5-2.5,13.1-4.6,19.8-6.5
						c18-5,37-7.7,56.6-7.7c11.4,0,22.5,0.9,33.5,2.6c0,0,60.4-89.1,199.4-131.9c-7.4-4-15.2-7.6-23.1-10.7
						c-0.3-0.1-0.6-0.3-0.9-0.4l-0.1,0C375,83.7,349.3,78.7,322.5,78.7z"/>
				</g>
			</g>
			<g class="st0">
				<text transform="matrix(1 0 0 1 136.897 342.499)" class="st2 st13 st14">LOREM IPSUM</text>
				<text transform="matrix(1 0 0 1 157.5078 369.311)" class="st2 st15 st16">SLOGAN HERE</text>
			</g>
		</g>
		<g class="st0">
			<g class="st2">
				<linearGradient id="SVGID_7_" gradientUnits="userSpaceOnUse" x1="580.6547" y1="476.4151" x2="584.2926" y2="554.6315">
					<stop  offset="0.1499" style="stop-color:#253861"/>
					<stop  offset="0.3035" style="stop-color:#415183"/>
					<stop  offset="0.5547" style="stop-color:#6B76B6"/>
					<stop  offset="0.7058" style="stop-color:#4F5D94"/>
					<stop  offset="0.9528" style="stop-color:#253861"/>
				</linearGradient>
				<path class="st17" d="M638,519.7c0,39.8-32.3,72.1-72.1,72.1c-13,0-25.2-3.5-35.8-9.5c2.2,0.2,4.5,0.4,6.7,0.4
					c34.8,0,62.9-28.2,62.9-62.9c0-34.8-28.2-62.9-62.9-62.9c-2.3,0-4.5,0.1-6.7,0.4c10.5-6,22.8-9.5,35.8-9.5
					C605.7,447.6,638,479.9,638,519.7z"/>
				<linearGradient id="SVGID_8_" gradientUnits="userSpaceOnUse" x1="550.0583" y1="489.9478" x2="559.7596" y2="553.0063">
					<stop  offset="0.1155" style="stop-color:#2F88AB"/>
					<stop  offset="0.1411" style="stop-color:#338CB0"/>
					<stop  offset="0.4474" style="stop-color:#66BAE3"/>
					<stop  offset="0.4858" style="stop-color:#62B6DE"/>
					<stop  offset="0.9444" style="stop-color:#2F88AB"/>
				</linearGradient>
				<path class="st18" d="M511.6,519.7c0,29.4,23.8,53.2,53.2,53.2c9.6,0,18.6-2.5,26.4-7c-1.6,0.2-3.3,0.3-5,0.3
					c-25.6,0-46.4-20.8-46.4-46.4c0-25.6,20.8-46.4,46.4-46.4c1.7,0,3.3,0.1,5,0.3c-7.8-4.5-16.8-7-26.4-7
					C535.4,466.6,511.6,490.4,511.6,519.7z"/>
				<linearGradient id="SVGID_9_" gradientUnits="userSpaceOnUse" x1="489.5664" y1="558.6646" x2="637.998" y2="558.6646">
					<stop  offset="0.1587" style="stop-color:#E1549A"/>
					<stop  offset="0.4044" style="stop-color:#B54380"/>
					<stop  offset="0.7147" style="stop-color:#822E62"/>
				</linearGradient>
				<path class="st19" d="M570.8,586.3c-22.9,0-43.2-11.5-55.3-29h-26c13.5,24.4,39.5,41,69.3,41c43.7,0,79.1-35.4,79.1-79.1
					C638,556.2,607.9,586.3,570.8,586.3z"/>
				<linearGradient id="SVGID_10_" gradientUnits="userSpaceOnUse" x1="496.2969" y1="478.6187" x2="637.9688" y2="478.6187">
					<stop  offset="0.1587" style="stop-color:#E1549A"/>
					<stop  offset="0.4044" style="stop-color:#B54380"/>
					<stop  offset="0.7147" style="stop-color:#822E62"/>
				</linearGradient>
				<path class="st20" d="M638,517.2c-1-36.2-30.7-65.3-67.1-65.3c-18.1,0-34.5,7.2-46.6,18.8h-28c0.1-0.1,0.2-0.2,0.3-0.3
					c14.5-18.5,37-30.4,62.3-30.4c18.4,0,35.4,6.3,48.8,16.8C625.7,471,637.4,492.7,638,517.2z"/>
				<linearGradient id="SVGID_11_" gradientUnits="userSpaceOnUse" x1="637.9688" y1="518.1724" x2="637.998" y2="518.1724">
					<stop  offset="0.1587" style="stop-color:#E1549A"/>
					<stop  offset="0.4044" style="stop-color:#B54380"/>
					<stop  offset="0.7147" style="stop-color:#822E62"/>
				</linearGradient>
				<path class="st21" d="M638,519.1c0-0.6,0-1.3,0-1.9C638,517.9,638,518.5,638,519.1z"/>
				<linearGradient id="SVGID_12_" gradientUnits="userSpaceOnUse" x1="511.6289" y1="489.5229" x2="622.6631" y2="489.5229">
					<stop  offset="0.2003" style="stop-color:#65BE9F"/>
					<stop  offset="0.5725" style="stop-color:#94C76C"/>
					<stop  offset="0.7732" style="stop-color:#AFCC4E"/>
				</linearGradient>
				<path class="st22" d="M561.9,468.9c17.2,0,32.3,8.6,41.4,21.7h19.4c-10.1-18.3-29.5-30.7-51.9-30.7c-32.7,0-59.2,26.5-59.2,59.2
					C511.6,491.4,534.1,468.9,561.9,468.9z"/>
				<linearGradient id="SVGID_13_" gradientUnits="userSpaceOnUse" x1="511.6289" y1="548.6982" x2="617.6289" y2="548.6982">
					<stop  offset="0.2003" style="stop-color:#65BE9F"/>
					<stop  offset="0.5725" style="stop-color:#94C76C"/>
					<stop  offset="0.7732" style="stop-color:#AFCC4E"/>
				</linearGradient>
				<path class="st23" d="M561.9,569.3c-27.7,0-50.2-22.5-50.2-50.2c0,32.7,26.5,59.2,59.2,59.2c19.1,0,36-9,46.8-23h-20.9
					C587.7,564,575.4,569.3,561.9,569.3z"/>
			</g>
			<g class="st2">
				<text transform="matrix(1 0 0 1 470.1982 644.0591)" class="st13 st14">LOREM IPSUM</text>
				<text transform="matrix(1 0 0 1 490.8086 670.8716)" class="st15 st16">SLOGAN HERE</text>
			</g>
		</g>
		<g class="st0">
			<g class="st2">
				<g>
					<linearGradient id="SVGID_14_" gradientUnits="userSpaceOnUse" x1="212.182" y1="504.5345" x2="192.5902" y2="476.6943">
						<stop  offset="0.1418" style="stop-color:#9BCC50"/>
						<stop  offset="0.7999" style="stop-color:#1D9C4D"/>
					</linearGradient>
					<path class="st24" d="M165.2,515.4v-13.1c28.1,0,51-22.9,51-51h13.1C229.3,486.6,200.5,515.4,165.2,515.4z"/>
				</g>
				<g>
					<linearGradient id="SVGID_15_" gradientUnits="userSpaceOnUse" x1="250.7449" y1="496.9977" x2="271.8827" y2="481.5313">
						<stop  offset="0.1587" style="stop-color:#E1549A"/>
						<stop  offset="0.4044" style="stop-color:#B54380"/>
						<stop  offset="0.7147" style="stop-color:#822E62"/>
					</linearGradient>
					<path class="st25" d="M301.5,515.4c-35.4,0-64.2-28.8-64.2-64.2h13.1c0,28.1,22.9,51,51,51V515.4z"/>
				</g>
				<g>
					<linearGradient id="SVGID_16_" gradientUnits="userSpaceOnUse" x1="255.673" y1="539.4445" x2="275.2625" y2="563.1586">
						<stop  offset="0.1418" style="stop-color:#9BCC50"/>
						<stop  offset="0.7999" style="stop-color:#1D9C4D"/>
					</linearGradient>
					<path class="st26" d="M250.5,588.2h-13.1c0-35.4,28.8-64.2,64.2-64.2v13.1C273.4,537.2,250.5,560.1,250.5,588.2z"/>
				</g>
				<g>
					<linearGradient id="SVGID_17_" gradientUnits="userSpaceOnUse" x1="221.6501" y1="538.8419" x2="184.5303" y2="565.1351">
						<stop  offset="0.1587" style="stop-color:#E1549A"/>
						<stop  offset="0.4044" style="stop-color:#B54380"/>
						<stop  offset="0.7147" style="stop-color:#822E62"/>
					</linearGradient>
					<path class="st27" d="M229.3,588.2h-13.1c0-28.1-22.9-51-51-51v-13.1C200.5,524.1,229.3,552.8,229.3,588.2z"/>
				</g>
				<g>
					<linearGradient id="SVGID_18_" gradientUnits="userSpaceOnUse" x1="233.5654" y1="463.5241" x2="233.5654" y2="486.2086">
						<stop  offset="0.1662" style="stop-color:#E26829"/>
						<stop  offset="0.7434" style="stop-color:#F69B26"/>
						<stop  offset="0.8236" style="stop-color:#F9A326"/>
					</linearGradient>
					<path class="st28" d="M233.6,487.2C233.6,487.2,233.6,487.2,233.6,487.2c-17.1,0-33.2-6.7-45.4-18.8l9.3-9.3
						c9.6,9.6,22.4,14.9,36.1,14.9c13.6,0,26.4-5.3,36.1-14.9l9.3,9.3C266.8,480.6,250.7,487.2,233.6,487.2z"/>
				</g>
				<g>
					<linearGradient id="SVGID_19_" gradientUnits="userSpaceOnUse" x1="265.8359" y1="519.5024" x2="293.9229" y2="519.5024">
						<stop  offset="0.1085" style="stop-color:#006588"/>
						<stop  offset="0.8766" style="stop-color:#2DB9E7"/>
					</linearGradient>
					<path class="st29" d="M284.6,564.9c-12.1-12.1-18.8-28.2-18.8-45.4c0-17.1,6.7-33.2,18.8-45.4l9.3,9.3
						c-9.6,9.6-14.9,22.4-14.9,36.1c0,13.6,5.3,26.4,14.9,36.1L284.6,564.9z"/>
				</g>
				<g>
					<linearGradient id="SVGID_20_" gradientUnits="userSpaceOnUse" x1="233.1338" y1="577.9749" x2="233.1338" y2="554.776">
						<stop  offset="0.1662" style="stop-color:#E26829"/>
						<stop  offset="0.7434" style="stop-color:#F69B26"/>
						<stop  offset="0.8236" style="stop-color:#F9A326"/>
					</linearGradient>
					<path class="st30" d="M269.2,580.3c-19.9-19.9-52.3-19.9-72.1,0l-9.3-9.3c25-25,65.7-25,90.7,0L269.2,580.3z"/>
				</g>
				<g>
					<linearGradient id="SVGID_21_" gradientUnits="userSpaceOnUse" x1="172.7764" y1="519.9336" x2="200.8334" y2="519.9336">
						<stop  offset="0.1085" style="stop-color:#006588"/>
						<stop  offset="0.8766" style="stop-color:#2DB9E7"/>
					</linearGradient>
					<path class="st31" d="M182.1,565.3l-9.3-9.3c19.9-19.9,19.9-52.3,0-72.1l9.3-9.3C207.1,499.6,207.1,540.3,182.1,565.3z"/>
				</g>
			</g>
			<g class="st2">
				<text transform="matrix(1 0 0 1 136.897 644.0591)" class="st13 st14">LOREM IPSUM</text>
				<text transform="matrix(1 0 0 1 157.5078 670.8716)" class="st15 st16">SLOGAN HERE</text>
			</g>
		</g>
		<g class="st0">
			<g class="st2">
				<g>
					<linearGradient id="SVGID_22_" gradientUnits="userSpaceOnUse" x1="535.9492" y1="225.6977" x2="619.7371" y2="307.4218">
						<stop  offset="0" style="stop-color:#E9E7E4"/>
						<stop  offset="0" style="stop-color:#E4DFDD"/>
						<stop  offset="7.089531e-002" style="stop-color:#D5D0D0"/>
						<stop  offset="0.2063" style="stop-color:#AEAAAD"/>
						<stop  offset="0.264" style="stop-color:#9C989D"/>
						<stop  offset="0.5225" style="stop-color:#F4F5F5"/>
						<stop  offset="0.5925" style="stop-color:#E6E6E7"/>
						<stop  offset="0.7269" style="stop-color:#C1BFC1"/>
						<stop  offset="0.8764" style="stop-color:#918D91"/>
						<stop  offset="1" style="stop-color:#D9DADB"/>
						<stop  offset="1" style="stop-color:#B5B7B9"/>
					</linearGradient>
					<path class="st32" d="M559.1,250.4c-38.1,23.8-57.3,0.6-65.2-16.2c3.1,38,35,67.8,73.8,67.8c24.4,0,46-11.8,59.5-29.9
						C650.3,235.9,607.7,220,559.1,250.4z"/>
					<linearGradient id="SVGID_23_" gradientUnits="userSpaceOnUse" x1="563.1091" y1="239.2135" x2="567.787" y2="267.83">
						<stop  offset="0.1599" style="stop-color:#F57231"/>
						<stop  offset="0.8161" style="stop-color:#A63620"/>
					</linearGradient>
					<path class="st33" d="M627.9,270.8c-3.9-16.9-34.7-24.4-72.7-9.2c-41.7,16.7-56.5-9.5-61.3-27.5c7.9,16.8,27.1,40,65.2,16.2
						C607.1,220.3,649.3,235.5,627.9,270.8z"/>
				</g>
				<g>
					
						<linearGradient id="SVGID_24_" gradientUnits="userSpaceOnUse" x1="1380.6641" y1="546.9563" x2="1464.4517" y2="628.68" gradientTransform="matrix(-1 0 0 -1 1978.0176 781.8975)">
						<stop  offset="0" style="stop-color:#E9E7E4"/>
						<stop  offset="0" style="stop-color:#E4DFDD"/>
						<stop  offset="7.089531e-002" style="stop-color:#D5D0D0"/>
						<stop  offset="0.2063" style="stop-color:#AEAAAD"/>
						<stop  offset="0.264" style="stop-color:#9C989D"/>
						<stop  offset="0.5225" style="stop-color:#F4F5F5"/>
						<stop  offset="0.5925" style="stop-color:#E6E6E7"/>
						<stop  offset="0.7269" style="stop-color:#C1BFC1"/>
						<stop  offset="0.8764" style="stop-color:#918D91"/>
						<stop  offset="1" style="stop-color:#D9DADB"/>
						<stop  offset="1" style="stop-color:#B5B7B9"/>
					</linearGradient>
					<path class="st34" d="M574.2,210.3c38.1-23.8,57.3-0.6,65.2,16.2c-3.2-38-35-67.8-73.8-67.8c-24.4,0-46,11.8-59.5,29.9
						C483,224.8,525.6,240.6,574.2,210.3z"/>
					
						<linearGradient id="SVGID_25_" gradientUnits="userSpaceOnUse" x1="1407.8245" y1="560.4716" x2="1412.5024" y2="589.0884" gradientTransform="matrix(-1 0 0 -1 1978.0176 781.8975)">
						<stop  offset="0.1599" style="stop-color:#F57231"/>
						<stop  offset="0.8161" style="stop-color:#A63620"/>
					</linearGradient>
					<path class="st35" d="M505.4,189.8c3.9,16.9,34.7,24.4,72.7,9.2c41.7-16.7,56.5,9.5,61.3,27.5c-7.9-16.8-27.1-40-65.2-16.2
						C526.2,240.3,484,225.1,505.4,189.8z"/>
				</g>
			</g>
			<g>
				<text transform="matrix(1 0 0 1 470.1982 342.499)" class="st2 st13 st14">LOREM IPSUM</text>
				<text transform="matrix(1 0 0 1 490.8086 369.311)" class="st2 st15 st16">SLOGAN HERE</text>
			</g>
		</g>
	</g>
</g>
<g id="DESIGNED_BY_FREEPIK" class="st0">
	<g class="st2">
		<path class="st36" d="M288.5,782.1v-0.3c-0.3,0.4-0.7,0.7-1,1c-0.3,0.3-0.7,0.4-1.1,0.6c-0.4,0.1-0.8,0.2-1.3,0.2
			c-0.6,0-1.2-0.1-1.7-0.4c-0.5-0.3-1-0.6-1.4-1.1c-0.4-0.5-0.7-1.1-0.9-1.7c-0.2-0.7-0.3-1.4-0.3-2.1c0-1.6,0.4-2.9,1.2-3.8
			c0.8-0.9,1.8-1.4,3.1-1.4c0.7,0,1.4,0.1,1.9,0.4c0.5,0.3,1,0.7,1.5,1.2v-3.8c0-0.5,0.1-0.9,0.3-1.2c0.2-0.3,0.5-0.4,0.9-0.4
			c0.4,0,0.7,0.1,0.9,0.4c0.2,0.3,0.3,0.6,0.3,1.1v11.4c0,0.5-0.1,0.9-0.3,1.1c-0.2,0.2-0.5,0.4-0.9,0.4c-0.4,0-0.6-0.1-0.9-0.4
			C288.6,782.9,288.5,782.6,288.5,782.1 M283.4,778.3c0,0.7,0.1,1.3,0.3,1.8c0.2,0.5,0.5,0.9,0.9,1.1c0.4,0.3,0.8,0.4,1.2,0.4
			c0.5,0,0.9-0.1,1.3-0.4c0.4-0.2,0.7-0.6,0.9-1.1c0.2-0.5,0.3-1.1,0.3-1.8c0-0.7-0.1-1.3-0.3-1.8c-0.2-0.5-0.5-0.9-0.9-1.1
			c-0.4-0.3-0.8-0.4-1.3-0.4c-0.5,0-0.9,0.1-1.3,0.4c-0.4,0.3-0.7,0.7-0.9,1.2C283.5,777,283.4,777.6,283.4,778.3"/>
		<path class="st36" d="M299.9,778.9h-5.1c0,0.6,0.1,1.1,0.4,1.6c0.2,0.4,0.5,0.8,0.9,1c0.4,0.2,0.8,0.3,1.3,0.3
			c0.3,0,0.6,0,0.9-0.1c0.3-0.1,0.5-0.2,0.7-0.3c0.2-0.2,0.5-0.3,0.7-0.5c0.2-0.2,0.5-0.4,0.8-0.7c0.1-0.1,0.3-0.2,0.6-0.2
			c0.3,0,0.5,0.1,0.6,0.2c0.2,0.1,0.2,0.4,0.2,0.6c0,0.2-0.1,0.5-0.3,0.8c-0.2,0.3-0.5,0.6-0.8,0.9c-0.4,0.3-0.8,0.5-1.4,0.7
			c-0.6,0.2-1.2,0.3-1.9,0.3c-1.7,0-3-0.5-3.9-1.4c-0.9-0.9-1.4-2.2-1.4-3.9c0-0.8,0.1-1.5,0.3-2.1c0.2-0.7,0.6-1.2,1-1.7
			c0.4-0.5,1-0.8,1.6-1.1c0.6-0.3,1.3-0.4,2.1-0.4c1,0,1.9,0.2,2.6,0.6c0.7,0.4,1.3,1,1.6,1.7c0.4,0.7,0.5,1.4,0.5,2.1
			c0,0.7-0.2,1.1-0.6,1.3C301.1,778.8,300.6,778.9,299.9,778.9 M294.9,777.5h4.7c-0.1-0.9-0.3-1.6-0.7-2c-0.4-0.4-1-0.7-1.6-0.7
			c-0.6,0-1.2,0.2-1.6,0.7C295.2,775.9,294.9,776.6,294.9,777.5"/>
		<path class="st36" d="M311.7,780.2c0,0.7-0.2,1.3-0.5,1.8c-0.3,0.5-0.9,0.9-1.5,1.2c-0.7,0.3-1.5,0.4-2.5,0.4
			c-0.9,0-1.7-0.1-2.4-0.4c-0.7-0.3-1.2-0.6-1.5-1.1c-0.3-0.4-0.5-0.9-0.5-1.3c0-0.3,0.1-0.5,0.3-0.7c0.2-0.2,0.5-0.3,0.8-0.3
			c0.3,0,0.5,0.1,0.6,0.2c0.1,0.1,0.3,0.3,0.4,0.6c0.3,0.5,0.6,0.8,1,1c0.4,0.2,0.9,0.3,1.5,0.3c0.5,0,0.9-0.1,1.3-0.3
			c0.3-0.2,0.5-0.5,0.5-0.8c0-0.5-0.2-0.8-0.5-1s-0.9-0.4-1.7-0.6c-0.9-0.2-1.6-0.5-2.2-0.7c-0.6-0.2-1-0.6-1.3-1
			c-0.3-0.4-0.5-0.9-0.5-1.5c0-0.5,0.2-1,0.5-1.5c0.3-0.5,0.8-0.8,1.4-1.1c0.6-0.3,1.3-0.4,2.2-0.4c0.7,0,1.3,0.1,1.8,0.2
			c0.5,0.1,1,0.3,1.3,0.6c0.4,0.2,0.6,0.5,0.8,0.8c0.2,0.3,0.3,0.6,0.3,0.8c0,0.3-0.1,0.5-0.3,0.7c-0.2,0.2-0.5,0.3-0.9,0.3
			c-0.3,0-0.5-0.1-0.7-0.2c-0.2-0.2-0.4-0.4-0.6-0.7c-0.2-0.3-0.4-0.5-0.7-0.6c-0.3-0.2-0.6-0.2-1.1-0.2c-0.5,0-0.9,0.1-1.2,0.3
			c-0.3,0.2-0.5,0.4-0.5,0.7c0,0.3,0.1,0.5,0.3,0.7c0.2,0.2,0.5,0.3,0.9,0.4c0.4,0.1,0.9,0.3,1.6,0.4c0.8,0.2,1.5,0.4,2,0.7
			c0.5,0.3,0.9,0.6,1.2,1C311.6,779.3,311.7,779.7,311.7,780.2"/>
		<path class="st36" d="M314.4,771.8c-0.4,0-0.7-0.1-0.9-0.3c-0.3-0.2-0.4-0.5-0.4-0.9c0-0.4,0.1-0.7,0.4-0.9
			c0.3-0.2,0.6-0.4,0.9-0.4c0.3,0,0.6,0.1,0.9,0.3c0.3,0.2,0.4,0.5,0.4,0.9c0,0.4-0.1,0.7-0.4,0.9
			C315,771.7,314.7,771.8,314.4,771.8 M315.7,774.5v7.5c0,0.5-0.1,0.9-0.4,1.2c-0.2,0.3-0.6,0.4-0.9,0.4c-0.4,0-0.7-0.1-0.9-0.4
			c-0.2-0.3-0.4-0.7-0.4-1.2v-7.4c0-0.5,0.1-0.9,0.4-1.2c0.2-0.3,0.5-0.4,0.9-0.4c0.4,0,0.7,0.1,0.9,0.4
			C315.5,773.7,315.7,774,315.7,774.5"/>
		<path class="st36" d="M327,774.9v7.5c0,0.9-0.1,1.6-0.3,2.2c-0.2,0.6-0.5,1.1-0.9,1.5c-0.4,0.4-0.9,0.7-1.6,0.9
			c-0.7,0.2-1.5,0.3-2.4,0.3c-0.9,0-1.7-0.1-2.4-0.4c-0.7-0.3-1.2-0.6-1.6-1c-0.4-0.4-0.6-0.8-0.6-1.2c0-0.3,0.1-0.6,0.3-0.8
			c0.2-0.2,0.5-0.3,0.8-0.3c0.4,0,0.7,0.2,1,0.5c0.1,0.2,0.3,0.3,0.4,0.5c0.1,0.2,0.3,0.3,0.5,0.4c0.2,0.1,0.4,0.2,0.7,0.3
			c0.3,0.1,0.5,0.1,0.9,0.1c0.7,0,1.2-0.1,1.6-0.3c0.4-0.2,0.6-0.4,0.8-0.8c0.2-0.3,0.2-0.7,0.3-1.1c0-0.4,0-1,0.1-1.8
			c-0.4,0.6-0.9,1-1.4,1.3c-0.5,0.3-1.1,0.4-1.9,0.4c-0.9,0-1.6-0.2-2.3-0.7c-0.6-0.4-1.1-1.1-1.5-1.9c-0.3-0.8-0.5-1.7-0.5-2.8
			c0-0.8,0.1-1.5,0.3-2.1c0.2-0.6,0.5-1.2,0.9-1.6c0.4-0.4,0.8-0.8,1.4-1c0.5-0.2,1.1-0.3,1.7-0.3c0.7,0,1.4,0.1,1.9,0.4
			c0.5,0.3,1,0.7,1.5,1.3v-0.4c0-0.4,0.1-0.8,0.3-1c0.2-0.2,0.5-0.4,0.9-0.4c0.5,0,0.8,0.2,1,0.5C327,773.8,327,774.3,327,774.9
			 M319.5,778.2c0,1.1,0.2,1.8,0.7,2.4c0.5,0.5,1.1,0.8,1.8,0.8c0.4,0,0.8-0.1,1.2-0.3c0.4-0.2,0.7-0.6,0.9-1c0.2-0.5,0.4-1,0.4-1.7
			c0-1.1-0.2-1.9-0.7-2.5c-0.5-0.6-1.1-0.9-1.8-0.9c-0.7,0-1.3,0.3-1.8,0.8C319.7,776.4,319.5,777.2,319.5,778.2"/>
		<path class="st36" d="M331.2,774.5v0.3c0.5-0.6,1-1,1.5-1.3c0.5-0.3,1.2-0.4,1.9-0.4c0.7,0,1.3,0.1,1.8,0.4
			c0.5,0.3,0.9,0.7,1.2,1.3c0.2,0.3,0.3,0.7,0.3,1c0.1,0.4,0.1,0.8,0.1,1.4v4.8c0,0.5-0.1,0.9-0.4,1.2c-0.2,0.3-0.5,0.4-0.9,0.4
			c-0.4,0-0.7-0.1-0.9-0.4c-0.2-0.3-0.4-0.7-0.4-1.2v-4.3c0-0.9-0.1-1.5-0.4-2c-0.2-0.5-0.7-0.7-1.4-0.7c-0.5,0-0.9,0.1-1.3,0.4
			c-0.4,0.3-0.7,0.7-0.8,1.1c-0.1,0.4-0.2,1.1-0.2,2.2v3.2c0,0.5-0.1,0.9-0.4,1.2c-0.2,0.3-0.6,0.4-0.9,0.4c-0.4,0-0.7-0.1-0.9-0.4
			c-0.2-0.3-0.4-0.7-0.4-1.2v-7.5c0-0.5,0.1-0.9,0.3-1.1c0.2-0.2,0.5-0.4,0.9-0.4c0.2,0,0.4,0.1,0.6,0.2c0.2,0.1,0.3,0.3,0.4,0.5
			C331.1,773.9,331.2,774.2,331.2,774.5"/>
		<path class="st36" d="M346.9,778.9h-5.1c0,0.6,0.1,1.1,0.4,1.6c0.2,0.4,0.5,0.8,0.9,1c0.4,0.2,0.8,0.3,1.3,0.3
			c0.3,0,0.6,0,0.9-0.1c0.3-0.1,0.5-0.2,0.7-0.3c0.2-0.2,0.5-0.3,0.7-0.5c0.2-0.2,0.5-0.4,0.8-0.7c0.1-0.1,0.3-0.2,0.6-0.2
			c0.3,0,0.5,0.1,0.6,0.2c0.2,0.1,0.2,0.4,0.2,0.6c0,0.2-0.1,0.5-0.3,0.8c-0.2,0.3-0.5,0.6-0.8,0.9c-0.4,0.3-0.8,0.5-1.4,0.7
			c-0.6,0.2-1.2,0.3-1.9,0.3c-1.7,0-3-0.5-3.9-1.4c-0.9-0.9-1.4-2.2-1.4-3.9c0-0.8,0.1-1.5,0.3-2.1c0.2-0.7,0.6-1.2,1-1.7
			c0.4-0.5,1-0.8,1.6-1.1c0.6-0.3,1.3-0.4,2.1-0.4c1,0,1.9,0.2,2.6,0.6c0.7,0.4,1.3,1,1.6,1.7c0.4,0.7,0.5,1.4,0.5,2.1
			c0,0.7-0.2,1.1-0.6,1.3C348.1,778.8,347.6,778.9,346.9,778.9 M341.9,777.5h4.7c-0.1-0.9-0.3-1.6-0.7-2c-0.4-0.4-1-0.7-1.6-0.7
			c-0.6,0-1.2,0.2-1.6,0.7C342.2,775.9,341.9,776.6,341.9,777.5"/>
		<path class="st36" d="M357.5,782.1v-0.3c-0.3,0.4-0.7,0.7-1,1c-0.3,0.3-0.7,0.4-1.1,0.6c-0.4,0.1-0.8,0.2-1.3,0.2
			c-0.6,0-1.2-0.1-1.7-0.4c-0.5-0.3-1-0.6-1.4-1.1c-0.4-0.5-0.7-1.1-0.9-1.7c-0.2-0.7-0.3-1.4-0.3-2.1c0-1.6,0.4-2.9,1.2-3.8
			c0.8-0.9,1.8-1.4,3.1-1.4c0.7,0,1.4,0.1,1.9,0.4c0.5,0.3,1,0.7,1.5,1.2v-3.8c0-0.5,0.1-0.9,0.3-1.2c0.2-0.3,0.5-0.4,0.9-0.4
			c0.4,0,0.7,0.1,0.9,0.4c0.2,0.3,0.3,0.6,0.3,1.1v11.4c0,0.5-0.1,0.9-0.3,1.1c-0.2,0.2-0.5,0.4-0.9,0.4c-0.4,0-0.6-0.1-0.9-0.4
			C357.6,782.9,357.5,782.6,357.5,782.1 M352.4,778.3c0,0.7,0.1,1.3,0.3,1.8c0.2,0.5,0.5,0.9,0.9,1.1c0.4,0.3,0.8,0.4,1.2,0.4
			c0.5,0,0.9-0.1,1.3-0.4c0.4-0.2,0.7-0.6,0.9-1.1c0.2-0.5,0.3-1.1,0.3-1.8c0-0.7-0.1-1.3-0.3-1.8c-0.2-0.5-0.5-0.9-0.9-1.1
			c-0.4-0.3-0.8-0.4-1.3-0.4c-0.5,0-0.9,0.1-1.3,0.4c-0.4,0.3-0.7,0.7-0.9,1.2C352.5,777,352.4,777.6,352.4,778.3"/>
		<path class="st36" d="M368.1,770.7v4c0.5-0.5,1-0.9,1.5-1.2c0.5-0.3,1.1-0.4,1.9-0.4c0.9,0,1.6,0.2,2.3,0.6c0.6,0.4,1.2,1,1.5,1.8
			c0.4,0.8,0.5,1.7,0.5,2.8c0,0.8-0.1,1.5-0.3,2.2c-0.2,0.7-0.5,1.2-0.9,1.7c-0.4,0.5-0.8,0.9-1.4,1.1c-0.5,0.3-1.1,0.4-1.8,0.4
			c-0.4,0-0.8,0-1.1-0.1c-0.4-0.1-0.7-0.2-0.9-0.4c-0.2-0.2-0.5-0.3-0.6-0.5c-0.2-0.2-0.4-0.4-0.7-0.7v0.3c0,0.5-0.1,0.9-0.4,1.1
			c-0.2,0.3-0.5,0.4-0.9,0.4c-0.4,0-0.7-0.1-0.9-0.4c-0.2-0.3-0.3-0.6-0.3-1.1v-11.3c0-0.5,0.1-0.9,0.3-1.2c0.2-0.3,0.5-0.4,0.9-0.4
			c0.4,0,0.7,0.1,0.9,0.4C368,769.8,368.1,770.2,368.1,770.7 M368.2,778.4c0,1,0.2,1.8,0.7,2.4c0.5,0.6,1.1,0.8,1.9,0.8
			c0.7,0,1.2-0.3,1.7-0.9c0.5-0.6,0.7-1.4,0.7-2.4c0-0.7-0.1-1.3-0.3-1.8c-0.2-0.5-0.5-0.9-0.8-1.1c-0.4-0.3-0.8-0.4-1.3-0.4
			c-0.5,0-0.9,0.1-1.3,0.4c-0.4,0.3-0.7,0.7-0.9,1.2C368.3,777,368.2,777.7,368.2,778.4"/>
		<path class="st36" d="M379.1,783.9l0.2-0.6l-3.2-8c-0.2-0.5-0.3-0.8-0.3-1c0-0.2,0.1-0.4,0.2-0.6c0.1-0.2,0.3-0.3,0.5-0.5
			c0.2-0.1,0.4-0.2,0.6-0.2c0.4,0,0.7,0.1,0.8,0.4c0.2,0.2,0.4,0.6,0.5,1l2.2,6.4l2.1-5.9c0.2-0.5,0.3-0.9,0.4-1.1
			c0.1-0.3,0.3-0.5,0.4-0.5c0.1-0.1,0.4-0.1,0.6-0.1c0.2,0,0.4,0.1,0.6,0.2c0.2,0.1,0.3,0.2,0.4,0.4c0.1,0.2,0.1,0.4,0.1,0.6
			c0,0.1-0.1,0.3-0.1,0.5c-0.1,0.2-0.1,0.4-0.2,0.7l-3.4,8.9c-0.3,0.8-0.6,1.4-0.9,1.8c-0.3,0.4-0.6,0.8-1.1,1
			c-0.5,0.2-1.1,0.4-1.9,0.4c-0.8,0-1.3-0.1-1.7-0.2c-0.4-0.2-0.6-0.5-0.6-0.9c0-0.3,0.1-0.5,0.3-0.7c0.2-0.2,0.4-0.2,0.8-0.2
			c0.1,0,0.3,0,0.4,0.1c0.2,0,0.3,0.1,0.4,0.1c0.3,0,0.5,0,0.7-0.1c0.2-0.1,0.3-0.2,0.5-0.5C378.8,784.6,379,784.3,379.1,783.9"/>
		<path class="st36" d="M416.7,773.3h0.6v-0.8c0-0.8,0.1-1.5,0.3-1.9c0.2-0.5,0.6-0.8,1-1c0.5-0.2,1.2-0.3,2-0.3
			c1.5,0,2.3,0.4,2.3,1.1c0,0.2-0.1,0.4-0.2,0.6c-0.2,0.2-0.3,0.3-0.6,0.3c-0.1,0-0.3,0-0.5-0.1c-0.2,0-0.5-0.1-0.6-0.1
			c-0.5,0-0.8,0.1-0.9,0.4c-0.1,0.3-0.2,0.7-0.2,1.2v0.6h0.6c1,0,1.5,0.3,1.5,0.9c0,0.4-0.1,0.7-0.4,0.8c-0.3,0.1-0.6,0.2-1.1,0.2
			h-0.6v6.9c0,0.5-0.1,0.9-0.4,1.2c-0.2,0.3-0.6,0.4-0.9,0.4c-0.4,0-0.7-0.1-0.9-0.4c-0.2-0.3-0.4-0.7-0.4-1.2v-6.9h-0.7
			c-0.4,0-0.7-0.1-0.9-0.3c-0.2-0.2-0.3-0.4-0.3-0.7C415.4,773.6,415.8,773.3,416.7,773.3"/>
		<path class="st36" d="M425.2,779.8v2.2c0,0.5-0.1,0.9-0.4,1.2c-0.2,0.3-0.6,0.4-0.9,0.4c-0.4,0-0.7-0.1-0.9-0.4
			c-0.2-0.3-0.4-0.7-0.4-1.2v-7.2c0-1.2,0.4-1.7,1.3-1.7c0.4,0,0.7,0.1,0.9,0.4c0.2,0.3,0.3,0.7,0.3,1.2c0.3-0.5,0.6-0.9,0.9-1.2
			c0.3-0.3,0.8-0.4,1.3-0.4c0.5,0,1.1,0.1,1.6,0.4c0.5,0.3,0.8,0.6,0.8,1.1c0,0.3-0.1,0.6-0.3,0.8c-0.2,0.2-0.5,0.3-0.7,0.3
			c-0.1,0-0.3-0.1-0.7-0.2c-0.4-0.1-0.7-0.2-1-0.2c-0.4,0-0.7,0.1-0.9,0.3c-0.2,0.2-0.4,0.5-0.6,0.9c-0.1,0.4-0.2,0.9-0.3,1.4
			C425.2,778.4,425.2,779,425.2,779.8"/>
		<path class="st36" d="M437.1,778.9H432c0,0.6,0.1,1.1,0.4,1.6c0.2,0.4,0.5,0.8,0.9,1c0.4,0.2,0.8,0.3,1.3,0.3c0.3,0,0.6,0,0.8-0.1
			c0.3-0.1,0.5-0.2,0.7-0.3c0.2-0.2,0.5-0.3,0.7-0.5c0.2-0.2,0.5-0.4,0.8-0.7c0.1-0.1,0.3-0.2,0.6-0.2c0.3,0,0.5,0.1,0.6,0.2
			c0.2,0.1,0.2,0.4,0.2,0.6c0,0.2-0.1,0.5-0.3,0.8c-0.2,0.3-0.5,0.6-0.8,0.9c-0.4,0.3-0.8,0.5-1.4,0.7c-0.6,0.2-1.2,0.3-1.9,0.3
			c-1.7,0-3-0.5-3.9-1.4c-0.9-1-1.4-2.2-1.4-3.9c0-0.8,0.1-1.5,0.3-2.1c0.2-0.7,0.6-1.2,1-1.7c0.4-0.5,1-0.8,1.6-1.1
			c0.6-0.2,1.3-0.4,2.1-0.4c1,0,1.9,0.2,2.6,0.6c0.7,0.4,1.3,1,1.6,1.7c0.4,0.7,0.5,1.4,0.5,2.1c0,0.6-0.2,1.1-0.6,1.3
			C438.3,778.8,437.8,778.9,437.1,778.9 M432,777.5h4.7c-0.1-0.9-0.3-1.5-0.7-2c-0.4-0.4-1-0.7-1.6-0.7c-0.6,0-1.2,0.2-1.6,0.7
			C432.4,775.9,432.1,776.6,432,777.5"/>
		<path class="st36" d="M447.9,778.9h-5.1c0,0.6,0.1,1.1,0.4,1.6c0.2,0.4,0.5,0.8,0.9,1c0.4,0.2,0.8,0.3,1.3,0.3
			c0.3,0,0.6,0,0.8-0.1c0.3-0.1,0.5-0.2,0.8-0.3c0.2-0.2,0.5-0.3,0.7-0.5c0.2-0.2,0.5-0.4,0.8-0.7c0.1-0.1,0.3-0.2,0.6-0.2
			c0.3,0,0.5,0.1,0.6,0.2c0.2,0.1,0.2,0.4,0.2,0.6c0,0.2-0.1,0.5-0.3,0.8c-0.2,0.3-0.5,0.6-0.8,0.9c-0.4,0.3-0.8,0.5-1.4,0.7
			c-0.6,0.2-1.2,0.3-1.9,0.3c-1.7,0-3-0.5-3.9-1.4c-0.9-1-1.4-2.2-1.4-3.9c0-0.8,0.1-1.5,0.3-2.1c0.2-0.7,0.6-1.2,1-1.7
			c0.4-0.5,1-0.8,1.6-1.1c0.6-0.2,1.4-0.4,2.1-0.4c1,0,1.9,0.2,2.6,0.6c0.7,0.4,1.3,1,1.6,1.7c0.4,0.7,0.5,1.4,0.5,2.1
			c0,0.6-0.2,1.1-0.6,1.3C449.1,778.8,448.6,778.9,447.9,778.9 M442.8,777.5h4.7c-0.1-0.9-0.3-1.5-0.7-2c-0.4-0.4-1-0.7-1.6-0.7
			c-0.6,0-1.2,0.2-1.6,0.7C443.2,775.9,442.9,776.6,442.8,777.5"/>
		<path class="st36" d="M453.6,774.5v0.3c0.5-0.6,1-1,1.5-1.3c0.5-0.3,1.1-0.4,1.8-0.4c0.8,0,1.5,0.2,2.2,0.6c0.7,0.4,1.2,1,1.6,1.8
			c0.4,0.8,0.6,1.7,0.6,2.8c0,0.8-0.1,1.5-0.3,2.2c-0.2,0.7-0.5,1.2-0.9,1.7c-0.4,0.5-0.9,0.8-1.4,1c-0.5,0.2-1.1,0.4-1.7,0.4
			c-0.7,0-1.4-0.1-1.9-0.4c-0.5-0.3-1-0.7-1.4-1.3v3.9c0,1.1-0.4,1.7-1.2,1.7c-0.5,0-0.8-0.1-1-0.4c-0.2-0.3-0.2-0.7-0.2-1.3v-11.2
			c0-0.5,0.1-0.9,0.3-1.1c0.2-0.2,0.5-0.4,0.9-0.4c0.4,0,0.7,0.1,0.9,0.4C453.5,773.7,453.6,774,453.6,774.5 M458.7,778.3
			c0-0.7-0.1-1.3-0.3-1.8c-0.2-0.5-0.5-0.9-0.9-1.1c-0.4-0.3-0.8-0.4-1.2-0.4c-0.7,0-1.3,0.3-1.8,0.8c-0.5,0.6-0.7,1.4-0.7,2.5
			c0,1,0.2,1.8,0.7,2.4c0.5,0.6,1.1,0.9,1.8,0.9c0.4,0,0.8-0.1,1.2-0.4c0.4-0.3,0.7-0.6,0.9-1.1C458.6,779.6,458.7,779,458.7,778.3"
			/>
		<path class="st36" d="M463.9,771.8c-0.4,0-0.7-0.1-0.9-0.3c-0.3-0.2-0.4-0.5-0.4-0.9c0-0.4,0.1-0.7,0.4-0.9
			c0.3-0.2,0.6-0.4,0.9-0.4c0.3,0,0.6,0.1,0.9,0.3c0.3,0.2,0.4,0.5,0.4,0.9c0,0.4-0.1,0.7-0.4,0.9
			C464.5,771.7,464.2,771.8,463.9,771.8 M465.2,774.5v7.5c0,0.5-0.1,0.9-0.4,1.2c-0.3,0.3-0.6,0.4-0.9,0.4c-0.4,0-0.7-0.1-0.9-0.4
			c-0.2-0.3-0.4-0.7-0.4-1.2v-7.4c0-0.5,0.1-0.9,0.4-1.2c0.2-0.3,0.5-0.4,0.9-0.4c0.4,0,0.7,0.1,0.9,0.4
			C465,773.7,465.2,774,465.2,774.5"/>
		<path class="st36" d="M473.5,782.4l-2.3-3.8l-1.4,1.3v2.1c0,0.5-0.1,0.9-0.4,1.1c-0.3,0.3-0.6,0.4-0.9,0.4c-0.4,0-0.7-0.1-0.9-0.4
			c-0.2-0.3-0.3-0.7-0.3-1.2v-11.1c0-0.6,0.1-1,0.3-1.3c0.2-0.3,0.5-0.5,1-0.5c0.4,0,0.7,0.1,0.9,0.4c0.2,0.3,0.4,0.7,0.4,1.2v6.3
			l2.9-3.1c0.4-0.4,0.6-0.6,0.8-0.8c0.2-0.1,0.4-0.2,0.7-0.2c0.3,0,0.6,0.1,0.8,0.3c0.2,0.2,0.3,0.5,0.3,0.8c0,0.4-0.4,0.9-1.1,1.5
			l-1.4,1.3l2.7,4.2c0.2,0.3,0.3,0.5,0.4,0.7c0.1,0.2,0.1,0.3,0.1,0.5c0,0.4-0.1,0.7-0.3,1c-0.2,0.2-0.5,0.4-0.9,0.4
			c-0.3,0-0.6-0.1-0.7-0.3C474,783.1,473.8,782.8,473.5,782.4"/>
		<path class="st36" d="M479.2,783.6c-0.4,0-0.7-0.1-1-0.4c-0.3-0.2-0.4-0.6-0.4-1.1c0-0.4,0.1-0.7,0.4-1c0.3-0.3,0.6-0.4,1-0.4
			c0.4,0,0.7,0.1,1,0.4c0.3,0.3,0.4,0.6,0.4,1c0,0.5-0.1,0.8-0.4,1.1C479.9,783.4,479.5,783.6,479.2,783.6"/>
		<path class="st36" d="M492.1,780.4c0,0.3-0.1,0.7-0.3,1c-0.2,0.4-0.5,0.7-0.9,1c-0.4,0.3-0.9,0.6-1.5,0.8c-0.6,0.2-1.3,0.3-2,0.3
			c-1.6,0-2.9-0.5-3.8-1.4c-0.9-0.9-1.3-2.2-1.3-3.8c0-1.1,0.2-2,0.6-2.8c0.4-0.8,1-1.4,1.8-1.9c0.8-0.4,1.7-0.7,2.8-0.7
			c0.7,0,1.3,0.1,1.9,0.3c0.6,0.2,1,0.5,1.4,0.8c0.4,0.3,0.7,0.6,0.9,1c0.2,0.4,0.3,0.7,0.3,1c0,0.3-0.1,0.6-0.3,0.8
			c-0.2,0.2-0.5,0.3-0.8,0.3c-0.2,0-0.4-0.1-0.5-0.2c-0.1-0.1-0.3-0.3-0.5-0.5c-0.3-0.5-0.6-0.8-1-1.1c-0.3-0.2-0.8-0.4-1.3-0.4
			c-0.8,0-1.4,0.3-1.9,0.9c-0.5,0.6-0.7,1.4-0.7,2.5c0,0.5,0.1,0.9,0.2,1.3c0.1,0.4,0.3,0.8,0.5,1c0.2,0.3,0.5,0.5,0.8,0.7
			c0.3,0.2,0.7,0.2,1.1,0.2c0.5,0,1-0.1,1.3-0.4c0.4-0.2,0.7-0.6,1-1.1c0.2-0.3,0.3-0.5,0.5-0.7c0.2-0.2,0.4-0.2,0.7-0.2
			c0.3,0,0.6,0.1,0.8,0.4C492,779.8,492.1,780.1,492.1,780.4"/>
		<path class="st36" d="M503.2,778.3c0,0.8-0.1,1.5-0.4,2.1c-0.2,0.7-0.6,1.2-1,1.7c-0.5,0.5-1,0.8-1.6,1.1
			c-0.6,0.2-1.3,0.4-2.1,0.4c-0.8,0-1.5-0.1-2.1-0.4c-0.6-0.2-1.2-0.6-1.6-1.1c-0.5-0.5-0.8-1-1.1-1.7c-0.2-0.6-0.3-1.4-0.3-2.1
			c0-0.8,0.1-1.5,0.4-2.2c0.2-0.7,0.6-1.2,1-1.7c0.5-0.5,1-0.8,1.6-1.1c0.6-0.2,1.3-0.4,2.1-0.4c0.8,0,1.5,0.1,2.1,0.4
			c0.6,0.3,1.2,0.6,1.6,1.1c0.5,0.5,0.8,1,1,1.7C503.1,776.8,503.2,777.5,503.2,778.3 M500.6,778.3c0-1.1-0.2-1.9-0.7-2.5
			c-0.5-0.6-1.1-0.9-1.9-0.9c-0.5,0-1,0.1-1.3,0.4c-0.4,0.3-0.7,0.6-0.9,1.2c-0.2,0.5-0.3,1.1-0.3,1.8c0,0.7,0.1,1.3,0.3,1.8
			c0.2,0.5,0.5,0.9,0.9,1.2c0.4,0.3,0.8,0.4,1.4,0.4c0.8,0,1.4-0.3,1.9-0.9C500.4,780.2,500.6,779.3,500.6,778.3"/>
		<path class="st36" d="M513.1,778.5v3.4c0,0.5-0.1,1-0.4,1.2c-0.3,0.3-0.6,0.4-1,0.4c-0.4,0-0.7-0.1-1-0.4
			c-0.2-0.3-0.4-0.7-0.4-1.2v-4.1c0-0.7,0-1.2-0.1-1.5c0-0.4-0.2-0.7-0.4-0.9c-0.2-0.2-0.5-0.4-0.9-0.4c-0.8,0-1.4,0.3-1.7,0.9
			c-0.3,0.6-0.4,1.4-0.4,2.5v3.5c0,0.5-0.1,0.9-0.4,1.2c-0.3,0.3-0.6,0.4-1,0.4c-0.4,0-0.7-0.1-1-0.4c-0.3-0.3-0.4-0.7-0.4-1.2v-7.4
			c0-0.5,0.1-0.9,0.3-1.1c0.2-0.3,0.5-0.4,0.9-0.4c0.4,0,0.7,0.1,0.9,0.4c0.2,0.2,0.4,0.6,0.4,1v0.2c0.5-0.5,0.9-0.9,1.4-1.2
			c0.5-0.3,1.1-0.4,1.7-0.4c0.7,0,1.2,0.1,1.7,0.4c0.5,0.3,0.9,0.7,1.2,1.2c0.4-0.5,0.9-0.9,1.4-1.2c0.5-0.3,1.1-0.4,1.7-0.4
			c0.7,0,1.3,0.1,1.8,0.4c0.5,0.3,0.9,0.7,1.1,1.2c0.2,0.5,0.3,1.2,0.3,2.2v5.1c0,0.5-0.1,1-0.4,1.2c-0.2,0.3-0.6,0.4-1,0.4
			c-0.4,0-0.7-0.1-1-0.4c-0.3-0.3-0.4-0.7-0.4-1.2v-4.4c0-0.6,0-1-0.1-1.3c0-0.3-0.2-0.6-0.4-0.8c-0.2-0.2-0.5-0.3-1-0.3
			c-0.3,0-0.7,0.1-1,0.3c-0.3,0.2-0.5,0.5-0.7,0.8C513.2,776.6,513.1,777.4,513.1,778.5"/>
		<path class="st36" d="M392.4,777.7C392.4,777.7,392.4,777.7,392.4,777.7C392.4,777.7,392.4,777.7,392.4,777.7"/>
		<path class="st36" d="M392.6,778.5L392.6,778.5c0-0.2-0.1-0.5-0.1-0.7C392.5,778,392.5,778.3,392.6,778.5"/>
		<path class="st36" d="M393.4,780.9C393.4,780.9,393.4,780.9,393.4,780.9C393.4,780.9,393.4,780.9,393.4,780.9"/>
		<path class="st36" d="M393.3,780.7c0,0,0-0.1-0.1-0.1C393.3,780.7,393.3,780.7,393.3,780.7"/>
		<path class="st36" d="M392.8,779.4c0.1,0.4,0.3,0.8,0.5,1.2C393.1,780.2,392.9,779.8,392.8,779.4L392.8,779.4z"/>
		<path class="st36" d="M402.5,767.7c0.5,0,0.9,0,1.3,0.1l0.1-0.8c0,0-1.2-0.4-2.7-0.2l-0.1-0.4c0.5-0.1,0.8-0.5,0.8-1
			c0-0.6-0.5-1.1-1.1-1.1c-0.6,0-1.1,0.5-1.1,1.1c0,0.5,0.4,0.9,0.8,1l0.1,0.5c-1.6,0.2-2.9,0.9-2.9,0.9l0.2,0.7
			c1-0.3,1.8-0.5,2.6-0.6C401.4,767.8,402,767.7,402.5,767.7"/>
		<path class="st36" d="M393.4,771.6L393.4,771.6c0-0.1,0.1-0.1,0.1-0.2l-0.3-0.2l-0.5-0.4c0,0-0.8,0.7-1.4,2c0,0-0.1-0.1-0.1-0.1
			c-0.2-0.2-0.4-0.3-0.8-0.3h0c-0.2,0-0.3-0.1-0.4-0.1c0.1-0.1,0.1-0.3,0.1-0.4c0-0.4-0.3-0.7-0.7-0.7c-0.4,0-0.7,0.3-0.7,0.7
			c0,0.4,0.3,0.7,0.7,0.7c0.1,0,0.1,0,0.2,0c0.2,0.2,0.4,0.3,0.8,0.3c0.2,0,0.3,0,0.4,0.2c0.1,0.1,0.1,0.3,0.2,0.4c0,0,0,0,0,0
			c-0.4,1.2-0.3,2.7-0.3,2.7l1.1,0c0-0.5,0.1-1.5,0.4-2.2C392.7,772.5,393.4,771.6,393.4,771.6"/>
		<path class="st36" d="M411.7,768.6c-0.4,0-0.7,0.3-0.7,0.7c0,0.1,0,0.1,0,0.2c-0.2,0.2-0.3,0.4-0.3,0.8c0,0.2,0,0.3-0.2,0.4
			c-0.1,0.1-0.2,0.1-0.3,0.1c-0.8-1.1-1.8-1.8-1.8-1.8l-0.8,0.8c0.6,0.5,1.2,1.2,1.7,2c0.4,0.6,0.8,1.3,1.1,2l1-0.5
			c0,0-0.5-1.2-1.1-2.2c0.1,0,0.2-0.1,0.3-0.2c0.2-0.2,0.3-0.4,0.3-0.8c0-0.2,0.1-0.3,0.1-0.4c0.1,0.1,0.3,0.1,0.4,0.1
			c0.4,0,0.7-0.3,0.7-0.7C412.3,768.9,412,768.6,411.7,768.6"/>
		<path class="st36" d="M409,777.8c-1.4,0.7-3.7,1.6-6.8,2c-1.2,0.2-2.4,0.2-3.4,0.2c-1.4,0-2.6-0.1-3.6-0.2
			c-1.1-0.1-1.9-0.3-2.4-0.4c0.1,0.4,0.3,0.8,0.5,1.2c0,0,0,0,0,0c0,0,0,0.1,0.1,0.1c0,0,0,0.1,0.1,0.1c0,0,0,0,0,0
			c0.3,0.6,0.7,1.1,1.1,1.5c1.4,1.6,2.9,1.8,2.9,1.8l0,0l0,0c0,0,1.3,0.4,3.3,0.4c1.9,0,3.9-0.4,5.7-1.2c1.3-0.7,2.6-1.7,3.3-2.7
			c0.5-0.7,0.8-1.5,1.1-2.3c0.1-0.4,0.2-1.1,0.1-1.8C410.5,777,409.9,777.4,409,777.8"/>
		<path class="st36" d="M393.9,771.9c0,0.1-0.7,0.9-1.1,2.3c-0.4,1-0.3,2.4-0.3,2.5v0c0,0.3,0,0.7,0.1,1c0,0,0,0,0,0
			c0,0,0,0.1,0,0.1c0,0.2,0.1,0.5,0.1,0.7c0.7,0.2,4.9,1.2,9.5,0.5c2.9-0.4,5.2-1.3,6.5-1.9c1.1-0.5,1.8-1,2.1-1.2
			c-0.3-1-1-2.6-1.7-3.6c-2-2.9-4.2-3.6-5.3-3.8c-0.4-0.1-0.8-0.1-1.2-0.1c-0.4,0-1,0-1.7,0.1c-0.7,0.1-1.6,0.3-2.5,0.6
			c-1.3,0.5-2.6,1.2-3.5,2l0,0C394.5,771.2,394.2,771.5,393.9,771.9 M406.1,771.3c1,0,1.7,0.8,1.7,1.7c0,1-0.8,1.7-1.7,1.7
			c-1,0-1.7-0.8-1.7-1.7C404.4,772,405.2,771.3,406.1,771.3 M397.9,771.2c1.6,0,2.8,1.3,2.8,2.8c0,1.6-1.3,2.8-2.8,2.8
			c-1.6,0-2.8-1.3-2.8-2.8C395.1,772.5,396.3,771.2,397.9,771.2"/>
	</g>
</g>
</svg>
